# xmcd CD database file generated by OrangeCD 6.4
#
# Track frame offsets:
#	150
#	10312
#	26905
#	45599
#	61121
#	83209
#	95311
#
# Disc length: 1489 seconds
#
# Revision: 0
# Processed by: cddbd v1.5.2PL0 Copyright (c) Steve Scherf et al.
# Submitted via: OrangeCD 6.4
#
DISCID=4c05cf07
DTITLE=Derek DePrator - Across The Country EP
DYEAR=2002
DGENRE=
TTITLE0=Mr Tom Hughies Town Gallows Pole
TTITLE1=Enjoy The Status Quo While You Can
TTITLE2=I Got A Girl Way Cross Town
TTITLE3=Across The Country
TTITLE4=Open Letter To My Fan Club
TTITLE5=On The Death Of Skip James
TTITLE6=Quit Yr Lowdown Ways
EXTD=
EXTT0=
EXTT1=
EXTT2=
EXTT3=
EXTT4=
EXTT5=
EXTT6=
PLAYORDER=
